<svg xmlns="http://www.w3.org/2000/svg" xmlns:xlink="http://www.w3.org/1999/xlink" xmlns:lucid="lucid" width="1582.46" height="733.37"><g transform="translate(-88.77094366836388 -313.31631299021205)" lucid:page-tab-id="0_0"><path d="M1215.84 566.15a6 6 0 0 1 6-6h423.4a6 6 0 0 1 6 6v454.53a6 6 0 0 1-6 6h-423.4a6 6 0 0 1-6-6z" fill="#fff"/><path d="M1231.92 560.15H1242m5.04 0h10.08m5.04 0h10.08m5.04 0h10.08m5.04 0h10.08m5.04 0h10.08m5.04 0h10.08m5.04 0h10.1m5.03 0h10.07m5.04 0h10.1m5.03 0h10.08m5.05 0h10.08m5.04 0h10.08m5.04 0h10.07m5.04 0h10.1m5.03 0h10.1m5.03 0h10.08m5.04 0h10.08m5.04 0h10.08m5.04 0h10.08m5.04 0h10.08m5.04 0h10.08m5.04 0h10.08m5.04 0h10.1m5.03 0h10.08m5.05 0h10.08m5.04 0h10.08m5.04 0h5.03l.94.07.9.22.88.36.8.5.72.6.6.72.5.8.37.88.2.9.1.95v5.05m0 5.05v10.1m0 5.05v10.1m0 5.05v10.1m0 5.06v10.1m0 5.06v10.1m0 5.05v10.1m0 5.06v10.1m0 5.05v10.1m0 5.06v10.1m0 5.05v10.1m0 5.06v10.1m0 5.05V753m0 5.07v10.1m0 5.05v10.1m0 5.05v10.1m0 5.05v10.1m0 5.05v10.1m0 5.05v10.1m0 5.05v10.1m0 5.05v10.1m0 5.05v10.1m0 5.05v10.1m0 5.06v10.1m0 5.05v10.1m0 5.05v10.1m0 5.05v10.1m0 5.05v10.1m0 5.05v10.1m0 5.05v10.1m0 5.05v5.05l-.1.94-.2.92-.37.87-.5.8-.6.73-.7.6-.82.5-.87.36-.9.2-.95.08h-5.04m-5.05 0h-10.08m-5.04 0h-10.08m-5.04 0h-10.08m-5.03 0h-10.1m-5.04 0h-10.08m-5.04 0h-10.08m-5.04 0h-10.08m-5.04 0h-10.08m-5.04 0h-10.08m-5.04 0h-10.08m-5.04 0h-10.1m-5.02 0h-10.1m-5.03 0h-10.1m-5.03 0h-10.08m-5.05 0h-10.08m-5.04 0h-10.08m-5.04 0h-10.07m-5.04 0H1368m-5.03 0h-10.08m-5.06 0h-10.08m-5.04 0h-10.08m-5.04 0h-10.08m-5.04 0h-10.08m-5.04 0h-10.08m-5.04 0h-10.08m-5.04 0h-10.08m-5.04 0h-10.08m-5.05 0h-5.03l-.94-.07-.92-.2-.87-.37-.8-.5-.7-.6-.62-.72-.5-.8-.35-.86-.22-.92-.07-.94v-5.05m0-5.05v-10.1m0-5.05v-10.1m0-5.05v-10.1m0-5.05v-10.1m0-5.05v-10.1m0-5.05v-10.1m0-5.05v-10.1m0-5.06v-10.1m0-5.05v-10.1m0-5.05v-10.1m0-5.05v-10.1m0-5.05v-10.1m0-5.05v-10.1m0-5.05v-10.1m0-5.05v-10.1m0-5.05v-10.1m0-5.06v-10.1m0-5.05v-10.1m0-5.04v-10.1m0-5.05v-10.1m0-5.04v-10.1m0-5.05v-10.1m0-5.04v-10.1m0-5.05V652m0-5.04v-10.1m0-5.06v-10.1m0-5.05v-10.1m0-5.05v-10.1m0-5.05v-10.1m0-5.05v-5.05l.08-.94.23-.9.36-.87.48-.8.6-.72.73-.6.8-.5.88-.36.92-.22.93-.07h5.05" stroke="#3a414a" fill="none"/><use xlink:href="#a" transform="matrix(1,0,0,1,1227.835053214702,572.1505383646338) translate(130.2283950617284 17.77777777777778)"/><use xlink:href="#b" transform="matrix(1,0,0,1,1227.835053214702,572.1505383646338) translate(194.30246913580248 17.77777777777778)"/><path d="M662.3 339.32a6 6 0 0 1 6-6h423.4a6 6 0 0 1 6 6v441.75a6 6 0 0 1-6 6H668.3a6 6 0 0 1-6-6z" fill="#fff"/><path d="M678.38 333.32h10.1m5.02 0h10.1m5.03 0h10.08m5.05 0h10.08m5.04 0h10.08m5.04 0h10.07m5.04 0h10.1m5.03 0h10.08m5.05 0h10.08m5.05 0h10.08m5.04 0h10.08m5.04 0h10.08m5.04 0h10.08m5.04 0h10.08m5.04 0h10.08m5.04 0h10.08m5.04 0h10.08m5.04 0h10.08m5.05 0h10.08m5.04 0h10.07m5.04 0h10.1m5.03 0H1006m5.05 0h10.08m5.04 0h10.08m5.04 0h10.07m5.04 0h10.1m5.04 0h10.08m5.04 0h5.04l.94.07.9.2.88.37.8.5.72.6.6.72.5.8.36.86.22.92.08.94v5.07m0 5.07v10.16m0 5.07v10.16m0 5.08v10.15m0 5.07v10.15m0 5.08v10.16m0 5.08v10.15m0 5.07v10.15m0 5.08v10.16m0 5.07v10.16m0 5.07v10.15m0 5.08v10.16m0 5.07v10.16m0 5.07v10.15m0 5.08v10.15m0 5.08v10.16m0 5.07v10.15m0 5.08v10.15m0 5.08v10.16m0 5.06v10.16m0 5.08v10.15m0 5.08v10.15m0 5.08v10.16m0 5.08v10.15m0 5.08v10.15m0 5.08v10.16m0 5.07v10.15m0 5.08v10.15m0 5.08v10.15m0 5.1v5.07l-.08.94-.22.92-.36.87-.5.8-.6.7-.72.62-.8.5-.87.36-.9.22-.95.07h-5.04m-5.04 0h-10.08m-5.05 0h-10.1m-5.03 0h-10.08m-5.05 0h-10.08m-5.04 0h-10.08m-5.04 0h-10.07m-5.04 0h-10.1m-5.03 0H965.7m-5.05 0h-10.08m-5.05 0h-10.08m-5.04 0h-10.08m-5.04 0H905.2m-5.04 0h-10.08m-5.04 0h-10.08m-5.04 0h-10.08m-5.04 0h-10.08m-5.04 0H829.6m-5.04 0h-10.08m-5.05 0h-10.08m-5.04 0h-10.07m-5.04 0h-10.1m-5.03 0H754m-5.05 0h-10.08m-5.04 0h-10.08m-5.04 0h-10.07m-5.04 0h-10.1m-5.03 0h-10.1m-5.03 0h-5.04l-.94-.07-.9-.22-.88-.36-.8-.5-.72-.6-.6-.72-.5-.8-.36-.88-.22-.9-.08-.95V776m0-5.1v-10.14m0-5.08v-10.15m0-5.08V730.3m0-5.08v-10.16m0-5.08v-10.15m0-5.08V684.6m0-5.08v-10.16m0-5.08v-10.15m0-5.08V638.9m0-5.08v-10.16m0-5.07v-10.17m0-5.08V593.2m0-5.08v-10.15m0-5.08v-10.17m0-5.08V547.5m0-5.08v-10.15m0-5.08v-10.17m0-5.07V501.8m0-5.08v-10.15m0-5.08v-10.17m0-5.07V456.1m0-5.08v-10.15m0-5.08v-10.16m0-5.08V410.4m0-5.07v-10.16m0-5.08v-10.16m0-5.08V364.7m0-5.07v-10.16m0-5.08v-5.08l.08-.94.22-.92.36-.87.5-.8.6-.73.72-.6.8-.5.87-.36.9-.2.95-.08h5.04" stroke="#3a414a" fill="none"/><use xlink:href="#c" transform="matrix(1,0,0,1,667.3029984415328,338.31631299021205) translate(136.02469135802468 17.77777777777778)"/><use xlink:href="#d" transform="matrix(1,0,0,1,667.3029984415328,338.31631299021205) translate(208.74074074074073 17.77777777777778)"/><path d="M795.2 646.9a6 6 0 0 1 6-6h148a6 6 0 0 1 6 6v108a6 6 0 0 1-6 6h-148a6 6 0 0 1-6-6z" stroke="#3a414a" fill="#fff"/><use xlink:href="#e" transform="matrix(1,0,0,1,807.2126350483346,652.9110763596298) translate(39.66666666666667 53.77777777777778)"/><path d="M1353.53 646.9a6 6 0 0 1 6-6h148a6 6 0 0 1 6 6v108a6 6 0 0 1-6 6h-148a6 6 0 0 1-6-6z" stroke="#3a414a" fill="#fff"/><use xlink:href="#f" transform="matrix(1,0,0,1,1365.532054773169,652.9110763596298) translate(39.69753086419753 53.77777777777778)"/><path d="M795.2 393.2a6 6 0 0 1 6-6h148a6 6 0 0 1 6 6v108a6 6 0 0 1-6 6h-148a6 6 0 0 1-6-6z" stroke="#3a414a" fill="#fff"/><use xlink:href="#g" transform="matrix(1,0,0,1,807.2126350483346,399.21095952762823) translate(23 38.77777777777778)"/><use xlink:href="#h" transform="matrix(1,0,0,1,807.2126350483346,399.21095952762823) translate(61.20987654320988 38.77777777777778)"/><use xlink:href="#i" transform="matrix(1,0,0,1,807.2126350483346,399.21095952762823) translate(31.02469135802469 65.44444444444446)"/><path d="M875.7 624.03h-1v-39.3h1zm0-60.64h-1v-55.2h1z" stroke="#3a414a" stroke-width=".05" fill="#3a414a"/><path d="M875.7 508.22h-1v-.5h1z" fill="#3a414a"/><path d="M875.74 508.25h-1.05v-.56h1.04zm-1-.5v.45h.95v-.46z" stroke="#3a414a" stroke-width=".05" fill="#3a414a"/><path d="M875.2 638.8l-4.62-14.27h9.27z" fill="#3a414a"/><path d="M875.2 640.4l-5.3-16.37h10.64zm-3.93-15.37l3.94 12.14 3.96-12.14z" stroke="#3a414a" stroke-width=".05" fill="#3a414a"/><use xlink:href="#j" transform="matrix(1,0,0,1,777.5336227026556,563.3943512769623) translate(0 14.222222222222223)"/><use xlink:href="#k" transform="matrix(1,0,0,1,777.5336227026556,563.3943512769623) translate(50.8641975308642 14.222222222222223)"/><use xlink:href="#l" transform="matrix(1,0,0,1,777.5336227026556,563.3943512769623) translate(137.1851851851852 14.222222222222223)"/><path d="M1106.74 701.4H972.1v-1h134.64zm229.9 0H1202v-1h134.65z" stroke="#3a414a" stroke-width=".05" fill="#3a414a"/><path d="M971.6 705.55l-14.27-4.64 14.27-4.62z" fill="#3a414a"/><path d="M972.1 706.24l-16.4-5.33 16.4-5.3zm-13.15-5.33l12.15 3.96v-7.9z" stroke="#3a414a" stroke-width=".05" fill="#3a414a"/><path d="M1351.4 700.9l-14.25 4.65v-9.27z" fill="#3a414a"/><path d="M1353.03 700.9l-16.38 5.34V695.6zm-15.38 3.96l12.15-3.95-12.15-3.94z" stroke="#3a414a" stroke-width=".05" fill="#3a414a"/><use xlink:href="#m" transform="matrix(1,0,0,1,1106.7427152811224,690.2444096929631) translate(0 14.222222222222223)"/><path d="M108.77 566.15a6 6 0 0 1 6-6h423.4a6 6 0 0 1 6 6v454.53a6 6 0 0 1-6 6h-423.4a6 6 0 0 1-6-6z" fill="#fff"/><path d="M124.85 560.15h10.08m5.04 0h10.08m5.04 0h10.08m5.03 0h10.1m5.04 0h10.08m5.04 0h10.08m5.04 0h10.08m5.04 0h10.08m5.04 0h10.08m5.04 0h10.08m5.04 0h10.08m5.05 0h10.07m5.04 0h10.1m5.03 0h10.08m5.05 0h10.08m5.04 0h10.08m5.04 0h10.07m5.04 0H392m5.03 0h10.08m5.05 0h10.1m5.03 0h10.08m5.04 0h10.08m5.04 0h10.08m5.04 0h10.08m5.04 0h10.08m5.04 0h10.08m5.04 0h10.08m5.04 0h5.04l.94.07.92.22.87.36.8.5.7.6.62.72.5.8.35.88.22.9.06.95v5.05m0 5.05v10.1m0 5.05v10.1m0 5.05v10.1m0 5.06v10.1m0 5.06v10.1m0 5.05v10.1m0 5.06v10.1m0 5.05v10.1m0 5.06v10.1m0 5.05v10.1m0 5.06v10.1m0 5.05V753m0 5.07v10.1m0 5.05v10.1m0 5.05v10.1m0 5.05v10.1m0 5.05v10.1m0 5.05v10.1m0 5.05v10.1m0 5.05v10.1m0 5.05v10.1m0 5.05v10.1m0 5.06v10.1m0 5.05v10.1m0 5.05v10.1m0 5.05v10.1m0 5.05v10.1m0 5.05v10.1m0 5.05v10.1m0 5.05v5.05l-.07.94-.23.92-.36.87-.48.8-.6.73-.73.6-.8.5-.88.36-.92.2-.94.08h-5.03m-5.05 0H518m-5.04 0h-10.08m-5.04 0h-10.08m-5.04 0h-10.08m-5.04 0h-10.08m-5.04 0H442.4m-5.04 0h-10.08m-5.04 0h-10.1m-5.03 0h-10.07m-5.04 0h-10.1m-5.03 0H366.8m-5.05 0h-10.08m-5.04 0h-10.08m-5.04 0h-10.07m-5.04 0h-10.1m-5.03 0H291.2m-5.06 0h-10.08m-5.04 0h-10.08m-5.04 0h-10.08m-5.04 0H230.7m-5.04 0h-10.08m-5.04 0h-10.08m-5.04 0h-10.08m-5.04 0h-10.1m-5.02 0h-10.1m-5.03 0h-10.08m-5.04 0h-10.08m-5.04 0h-5.03l-.94-.07-.9-.2-.88-.37-.8-.5-.72-.6-.6-.72-.5-.8-.37-.86-.22-.92-.07-.94v-5.05m0-5.05v-10.1m0-5.05v-10.1m0-5.05v-10.1m0-5.05v-10.1m0-5.05v-10.1m0-5.05v-10.1m0-5.05v-10.1m0-5.06v-10.1m0-5.05v-10.1m0-5.05v-10.1m0-5.05v-10.1m0-5.05v-10.1m0-5.05v-10.1m0-5.05v-10.1m0-5.05v-10.1m0-5.05v-10.1m0-5.06v-10.1m0-5.05v-10.1m0-5.04v-10.1m0-5.05v-10.1m0-5.04v-10.1m0-5.05v-10.1m0-5.04v-10.1m0-5.05V652m0-5.04v-10.1m0-5.06v-10.1m0-5.05v-10.1m0-5.05v-10.1m0-5.05v-10.1m0-5.05v-5.05l.08-.94.22-.9.36-.87.5-.8.6-.72.7-.6.82-.5.87-.36.9-.22.95-.07h5.04" stroke="#3a414a" fill="none"/><use xlink:href="#a" transform="matrix(1,0,0,1,120.77094366836388,572.1505383646338) translate(130.2283950617284 17.77777777777778)"/><use xlink:href="#b" transform="matrix(1,0,0,1,120.77094366836388,572.1505383646338) translate(194.30246913580248 17.77777777777778)"/><path d="M246.47 646.9a6 6 0 0 1 6-6h148a6 6 0 0 1 6 6v108a6 6 0 0 1-6 6h-148a6 6 0 0 1-6-6z" stroke="#3a414a" fill="#fff"/><use xlink:href="#f" transform="matrix(1,0,0,1,258.4679452268309,652.9110763596298) translate(39.69753086419753 53.77777777777778)"/><path d="M553.2 701.4H423.36v-1H553.2zm225.13 0H648.47v-1h129.86z" stroke="#3a414a" stroke-width=".05" fill="#3a414a"/><path d="M793.1 700.9l-14.27 4.65v-9.27z" fill="#3a414a"/><path d="M794.7 700.9l-16.37 5.34V695.6zm-15.37 3.96l12.15-3.95-12.15-3.94z" stroke="#3a414a" stroke-width=".05" fill="#3a414a"/><path d="M422.85 705.55l-14.26-4.64 14.25-4.62z" fill="#3a414a"/><path d="M423.35 706.24l-16.38-5.33 16.38-5.3zm-13.15-5.33l12.15 3.96v-7.9z" stroke="#3a414a" stroke-width=".05" fill="#3a414a"/><use xlink:href="#m" transform="matrix(1,0,0,1,553.2106605079531,690.2444096929631) translate(0 14.222222222222223)"/><path d="M1353.53 847.67a6 6 0 0 1 6-6h148a6 6 0 0 1 6 6v108a6 6 0 0 1-6 6h-148a6 6 0 0 1-6-6z" stroke="#3a414a" fill="#fff"/><use xlink:href="#n" transform="matrix(1,0,0,1,1365.532054773169,853.669666557952) translate(13.7716049382716 53.77777777777778)"/><path d="M1434.03 824.8h-1v-17.37h1zm0-38.7h-1v-24.2h1z" stroke="#3a414a" stroke-width=".05" fill="#3a414a"/><path d="M1434.03 761.92h-1v-.5h1z" fill="#3a414a"/><path d="M1434.06 761.95H1433v-.56h1.06zm-1-.5v.45h.95v-.46z" stroke="#3a414a" stroke-width=".05" fill="#3a414a"/><path d="M1433.53 839.55l-4.63-14.26h9.27z" fill="#3a414a"/><path d="M1433.53 841.17l-5.32-16.38h10.66zm-3.94-15.38l3.93 12.13 3.95-12.14z" stroke="#3a414a" stroke-width=".05" fill="#3a414a"/><use xlink:href="#j" transform="matrix(1,0,0,1,1335.85304242749,786.1019598956759) translate(0 14.222222222222223)"/><use xlink:href="#k" transform="matrix(1,0,0,1,1335.85304242749,786.1019598956759) translate(50.8641975308642 14.222222222222223)"/><use xlink:href="#l" transform="matrix(1,0,0,1,1335.85304242749,786.1019598956759) translate(137.1851851851852 14.222222222222223)"/><path d="M246.47 847.67a6 6 0 0 1 6-6h148a6 6 0 0 1 6 6v108a6 6 0 0 1-6 6h-148a6 6 0 0 1-6-6z" stroke="#3a414a" fill="#fff"/><g><use xlink:href="#n" transform="matrix(1,0,0,1,258.46794522683103,853.669666557952) translate(13.7716049382716 53.77777777777778)"/></g><path d="M326.97 824.8h-1v-19.2h1zm0-40.55h-1V761.9h1z" stroke="#3a414a" stroke-width=".05" fill="#3a414a"/><path d="M326.97 761.92h-1v-.5h1z" fill="#3a414a"/><path d="M327 761.95h-1.06v-.56H327zm-1-.5v.45h.94v-.46z" stroke="#3a414a" stroke-width=".05" fill="#3a414a"/><path d="M326.47 839.55l-4.64-14.26h9.27z" fill="#3a414a"/><path d="M326.47 841.17l-5.33-16.38h10.65zm-3.95-15.38l3.95 12.13 3.94-12.14z" stroke="#3a414a" stroke-width=".05" fill="#3a414a"/><g><use xlink:href="#j" transform="matrix(1,0,0,1,228.7889328811519,784.2515428732032) translate(0 14.222222222222223)"/><use xlink:href="#k" transform="matrix(1,0,0,1,228.7889328811519,784.2515428732032) translate(50.8641975308642 14.222222222222223)"/><use xlink:href="#l" transform="matrix(1,0,0,1,228.7889328811519,784.2515428732032) translate(137.1851851851852 14.222222222222223)"/></g><defs><path fill="#3a414a" d="M24 0v-248h52v208h133V0H24" id="o"/><path fill="#3a414a" d="M110-194c64 0 96 36 96 99 0 64-35 99-97 99-61 0-95-36-95-99 0-62 34-99 96-99zm-1 164c35 0 45-28 45-65 0-40-10-65-43-65-34 0-45 26-45 65 0 36 10 65 43 65" id="p"/><path fill="#3a414a" d="M190-63c-7 42-38 67-86 67-59 0-84-38-90-98-12-110 154-137 174-36l-49 2c-2-19-15-32-35-32-30 0-35 28-38 64-6 74 65 87 74 30" id="q"/><path fill="#3a414a" d="M133-34C117-15 103 5 69 4 32 3 11-16 11-54c-1-60 55-63 116-61 1-26-3-47-28-47-18 1-26 9-28 27l-52-2c7-38 36-58 82-57s74 22 75 68l1 82c-1 14 12 18 25 15v27c-30 8-71 5-69-32zm-48 3c29 0 43-24 42-57-32 0-66-3-65 30 0 17 8 27 23 27" id="r"/><path fill="#3a414a" d="M25 0v-261h50V0H25" id="s"/><g id="a"><use transform="matrix(0.06172839506172839,0,0,0.06172839506172839,0,0)" xlink:href="#o"/><use transform="matrix(0.06172839506172839,0,0,0.06172839506172839,13.518518518518517,0)" xlink:href="#p"/><use transform="matrix(0.06172839506172839,0,0,0.06172839506172839,27.037037037037035,0)" xlink:href="#q"/><use transform="matrix(0.06172839506172839,0,0,0.06172839506172839,39.382716049382715,0)" xlink:href="#r"/><use transform="matrix(0.06172839506172839,0,0,0.06172839506172839,51.72839506172839,0)" xlink:href="#s"/></g><path fill="#3a414a" d="M175 0L67-191c6 58 2 128 3 191H24v-248h59L193-55c-6-58-2-129-3-193h46V0h-61" id="t"/><path fill="#3a414a" d="M185-48c-13 30-37 53-82 52C43 2 14-33 14-96s30-98 90-98c62 0 83 45 84 108H66c0 31 8 55 39 56 18 0 30-7 34-22zm-45-69c5-46-57-63-70-21-2 6-4 13-4 21h74" id="u"/><path fill="#3a414a" d="M115-3C79 11 28 4 28-45v-112H4v-33h27l15-45h31v45h36v33H77v99c-1 23 16 31 38 25v30" id="v"/><path fill="#3a414a" d="M231 0h-52l-39-155L100 0H48L-1-190h46L77-45c9-52 24-97 36-145h53l37 145 32-145h46" id="w"/><path fill="#3a414a" d="M135-150c-39-12-60 13-60 57V0H25l-1-190h47c2 13-1 29 3 40 6-28 27-53 61-41v41" id="x"/><path fill="#3a414a" d="M147 0L96-86 75-71V0H25v-261h50v150l67-79h53l-66 74L201 0h-54" id="y"/><g id="b"><use transform="matrix(0.06172839506172839,0,0,0.06172839506172839,0,0)" xlink:href="#t"/><use transform="matrix(0.06172839506172839,0,0,0.06172839506172839,15.987654320987653,0)" xlink:href="#u"/><use transform="matrix(0.06172839506172839,0,0,0.06172839506172839,28.333333333333332,0)" xlink:href="#v"/><use transform="matrix(0.06172839506172839,0,0,0.06172839506172839,35.67901234567901,0)" xlink:href="#w"/><use transform="matrix(0.06172839506172839,0,0,0.06172839506172839,52.96296296296296,0)" xlink:href="#p"/><use transform="matrix(0.06172839506172839,0,0,0.06172839506172839,66.48148148148148,0)" xlink:href="#x"/><use transform="matrix(0.06172839506172839,0,0,0.06172839506172839,75.12345679012346,0)" xlink:href="#y"/></g><path fill="#3a414a" d="M24-248c93 1 206-16 204 79-1 75-69 88-152 82V0H24v-248zm52 121c47 0 100 7 100-41 0-47-54-39-100-39v80" id="z"/><path fill="#3a414a" d="M85 4C-2 5 27-109 22-190h50c7 57-23 150 33 157 60-5 35-97 40-157h50l1 190h-47c-2-12 1-28-3-38-12 25-28 42-61 42" id="A"/><path fill="#3a414a" d="M135-194c52 0 70 43 70 98 0 56-19 99-73 100-30 1-46-15-58-35L72 0H24l1-261h50v104c11-23 29-37 60-37zM114-30c31 0 40-27 40-66 0-37-7-63-39-63s-41 28-41 65c0 36 8 64 40 64" id="B"/><path fill="#3a414a" d="M25-224v-37h50v37H25zM25 0v-190h50V0H25" id="C"/><g id="c"><use transform="matrix(0.06172839506172839,0,0,0.06172839506172839,0,0)" xlink:href="#z"/><use transform="matrix(0.06172839506172839,0,0,0.06172839506172839,14.814814814814813,0)" xlink:href="#A"/><use transform="matrix(0.06172839506172839,0,0,0.06172839506172839,28.33333333333333,0)" xlink:href="#B"/><use transform="matrix(0.06172839506172839,0,0,0.06172839506172839,41.85185185185185,0)" xlink:href="#s"/><use transform="matrix(0.06172839506172839,0,0,0.06172839506172839,48.02469135802469,0)" xlink:href="#C"/><use transform="matrix(0.06172839506172839,0,0,0.06172839506172839,54.19753086419753,0)" xlink:href="#q"/></g><path fill="#3a414a" d="M24 0v-248h52V0H24" id="D"/><path fill="#3a414a" d="M135-194c87-1 58 113 63 194h-50c-7-57 23-157-34-157-59 0-34 97-39 157H25l-1-190h47c2 12-1 28 3 38 12-26 28-41 61-42" id="E"/><g id="d"><use transform="matrix(0.06172839506172839,0,0,0.06172839506172839,0,0)" xlink:href="#D"/><use transform="matrix(0.06172839506172839,0,0,0.06172839506172839,6.172839506172839,0)" xlink:href="#E"/><use transform="matrix(0.06172839506172839,0,0,0.06172839506172839,19.691358024691358,0)" xlink:href="#v"/><use transform="matrix(0.06172839506172839,0,0,0.06172839506172839,27.037037037037038,0)" xlink:href="#u"/><use transform="matrix(0.06172839506172839,0,0,0.06172839506172839,39.382716049382715,0)" xlink:href="#x"/><use transform="matrix(0.06172839506172839,0,0,0.06172839506172839,48.02469135802469,0)" xlink:href="#E"/><use transform="matrix(0.06172839506172839,0,0,0.06172839506172839,61.54320987654321,0)" xlink:href="#u"/><use transform="matrix(0.06172839506172839,0,0,0.06172839506172839,73.88888888888889,0)" xlink:href="#v"/></g><path fill="#3a414a" d="M233-177c-1 41-23 64-60 70L243 0h-38l-65-103H63V0H30v-248c88 3 205-21 203 71zM63-129c60-2 137 13 137-47 0-61-80-42-137-45v92" id="F"/><path fill="#3a414a" d="M100-194c63 0 86 42 84 106H49c0 40 14 67 53 68 26 1 43-12 49-29l28 8c-11 28-37 45-77 45C44 4 14-33 15-96c1-61 26-98 85-98zm52 81c6-60-76-77-97-28-3 7-6 17-6 28h103" id="G"/><path fill="#3a414a" d="M24 0v-261h32V0H24" id="H"/><path fill="#3a414a" d="M141-36C126-15 110 5 73 4 37 3 15-17 15-53c-1-64 63-63 125-63 3-35-9-54-41-54-24 1-41 7-42 31l-33-3c5-37 33-52 76-52 45 0 72 20 72 64v82c-1 20 7 32 28 27v20c-31 9-61-2-59-35zM48-53c0 20 12 33 32 33 41-3 63-29 60-74-43 2-92-5-92 41" id="I"/><path fill="#3a414a" d="M179-190L93 31C79 59 56 82 12 73V49c39 6 53-20 64-50L1-190h34L92-34l54-156h33" id="J"/><g id="e"><use transform="matrix(0.06172839506172839,0,0,0.06172839506172839,0,0)" xlink:href="#F"/><use transform="matrix(0.06172839506172839,0,0,0.06172839506172839,15.987654320987653,0)" xlink:href="#G"/><use transform="matrix(0.06172839506172839,0,0,0.06172839506172839,28.333333333333332,0)" xlink:href="#H"/><use transform="matrix(0.06172839506172839,0,0,0.06172839506172839,33.20987654320987,0)" xlink:href="#I"/><use transform="matrix(0.06172839506172839,0,0,0.06172839506172839,45.55555555555555,0)" xlink:href="#J"/></g><path fill="#3a414a" d="M212-179c-10-28-35-45-73-45-59 0-87 40-87 99 0 60 29 101 89 101 43 0 62-24 78-52l27 14C228-24 195 4 139 4 59 4 22-46 18-125c-6-104 99-153 187-111 19 9 31 26 39 46" id="K"/><path fill="#3a414a" d="M24-231v-30h32v30H24zM24 0v-190h32V0H24" id="L"/><path fill="#3a414a" d="M117-194c89-4 53 116 60 194h-32v-121c0-31-8-49-39-48C34-167 62-67 57 0H25l-1-190h30c1 10-1 24 2 32 11-22 29-35 61-36" id="M"/><path fill="#3a414a" d="M59-47c-2 24 18 29 38 22v24C64 9 27 4 27-40v-127H5v-23h24l9-43h21v43h35v23H59v120" id="N"/><g id="f"><use transform="matrix(0.06172839506172839,0,0,0.06172839506172839,0,0)" xlink:href="#K"/><use transform="matrix(0.06172839506172839,0,0,0.06172839506172839,15.987654320987653,0)" xlink:href="#H"/><use transform="matrix(0.06172839506172839,0,0,0.06172839506172839,20.864197530864196,0)" xlink:href="#L"/><use transform="matrix(0.06172839506172839,0,0,0.06172839506172839,25.74074074074074,0)" xlink:href="#G"/><use transform="matrix(0.06172839506172839,0,0,0.06172839506172839,38.08641975308642,0)" xlink:href="#M"/><use transform="matrix(0.06172839506172839,0,0,0.06172839506172839,50.432098765432094,0)" xlink:href="#N"/></g><path fill="#3a414a" d="M126-127c33 6 58 20 58 59 0 88-139 92-164 29-3-8-5-16-6-25l32-3c6 27 21 44 54 44 32 0 52-15 52-46 0-38-36-46-79-43v-28c39 1 72-4 72-42 0-27-17-43-46-43-28 0-47 15-49 41l-32-3c6-42 35-63 81-64 48-1 79 21 79 65 0 36-21 52-52 59" id="O"/><path fill="#3a414a" d="M114-163C36-179 61-72 57 0H25l-1-190h30c1 12-1 29 2 39 6-27 23-49 58-41v29" id="P"/><path fill="#3a414a" d="M85-194c31 0 48 13 60 33l-1-100h32l1 261h-30c-2-10 0-23-3-31C134-8 116 4 85 4 32 4 16-35 15-94c0-66 23-100 70-100zm9 24c-40 0-46 34-46 75 0 40 6 74 45 74 42 0 51-32 51-76 0-42-9-74-50-73" id="Q"/><g id="g"><use transform="matrix(0.06172839506172839,0,0,0.06172839506172839,0,0)" xlink:href="#O"/><use transform="matrix(0.06172839506172839,0,0,0.06172839506172839,12.345679012345679,0)" xlink:href="#P"/><use transform="matrix(0.06172839506172839,0,0,0.06172839506172839,19.691358024691358,0)" xlink:href="#Q"/></g><path fill="#3a414a" d="M30-248c87 1 191-15 191 75 0 78-77 80-158 76V0H30v-248zm33 125c57 0 124 11 124-50 0-59-68-47-124-48v98" id="R"/><g id="h"><use transform="matrix(0.06172839506172839,0,0,0.06172839506172839,0,0)" xlink:href="#R"/><use transform="matrix(0.06172839506172839,0,0,0.06172839506172839,14.814814814814813,0)" xlink:href="#I"/><use transform="matrix(0.06172839506172839,0,0,0.06172839506172839,27.160493827160494,0)" xlink:href="#P"/><use transform="matrix(0.06172839506172839,0,0,0.06172839506172839,34.50617283950617,0)" xlink:href="#N"/><use transform="matrix(0.06172839506172839,0,0,0.06172839506172839,40.67901234567901,0)" xlink:href="#J"/></g><path fill="#3a414a" d="M185-189c-5-48-123-54-124 2 14 75 158 14 163 119 3 78-121 87-175 55-17-10-28-26-33-46l33-7c5 56 141 63 141-1 0-78-155-14-162-118-5-82 145-84 179-34 5 7 8 16 11 25" id="S"/><path fill="#3a414a" d="M108 0H70L1-190h34L89-25l56-165h34" id="T"/><path fill="#3a414a" d="M96-169c-40 0-48 33-48 73s9 75 48 75c24 0 41-14 43-38l32 2c-6 37-31 61-74 61-59 0-76-41-82-99-10-93 101-131 147-64 4 7 5 14 7 22l-32 3c-4-21-16-35-41-35" id="U"/><g id="i"><use transform="matrix(0.06172839506172839,0,0,0.06172839506172839,0,0)" xlink:href="#S"/><use transform="matrix(0.06172839506172839,0,0,0.06172839506172839,14.814814814814813,0)" xlink:href="#G"/><use transform="matrix(0.06172839506172839,0,0,0.06172839506172839,27.160493827160494,0)" xlink:href="#P"/><use transform="matrix(0.06172839506172839,0,0,0.06172839506172839,34.50617283950617,0)" xlink:href="#T"/><use transform="matrix(0.06172839506172839,0,0,0.06172839506172839,45.61728395061728,0)" xlink:href="#L"/><use transform="matrix(0.06172839506172839,0,0,0.06172839506172839,50.49382716049382,0)" xlink:href="#U"/><use transform="matrix(0.06172839506172839,0,0,0.06172839506172839,61.60493827160494,0)" xlink:href="#G"/></g><path fill="#333" d="M186 0v-106H76V0H24v-248h52v99h110v-99h50V0h-50" id="V"/><path fill="#333" d="M136-208V0H84v-208H4v-40h212v40h-80" id="W"/><path fill="#333" d="M24-248c93 1 206-16 204 79-1 75-69 88-152 82V0H24v-248zm52 121c47 0 100 7 100-41 0-47-54-39-100-39v80" id="X"/><g id="j"><use transform="matrix(0.04938271604938272,0,0,0.04938271604938272,0,0)" xlink:href="#V"/><use transform="matrix(0.04938271604938272,0,0,0.04938271604938272,12.790123456790125,0)" xlink:href="#W"/><use transform="matrix(0.04938271604938272,0,0,0.04938271604938272,23.60493827160494,0)" xlink:href="#W"/><use transform="matrix(0.04938271604938272,0,0,0.04938271604938272,34.41975308641975,0)" xlink:href="#X"/></g><path fill="#333" d="M275 0h-61l-44-196L126 0H64L0-248h53L97-49l45-199h58l43 199 44-199h52" id="Y"/><path fill="#333" d="M185-48c-13 30-37 53-82 52C43 2 14-33 14-96s30-98 90-98c62 0 83 45 84 108H66c0 31 8 55 39 56 18 0 30-7 34-22zm-45-69c5-46-57-63-70-21-2 6-4 13-4 21h74" id="Z"/><path fill="#333" d="M135-194c52 0 70 43 70 98 0 56-19 99-73 100-30 1-46-15-58-35L72 0H24l1-261h50v104c11-23 29-37 60-37zM114-30c31 0 40-27 40-66 0-37-7-63-39-63s-41 28-41 65c0 36 8 64 40 64" id="aa"/><path fill="#333" d="M110-194c64 0 96 36 96 99 0 64-35 99-97 99-61 0-95-36-95-99 0-62 34-99 96-99zm-1 164c35 0 45-28 45-65 0-40-10-65-43-65-34 0-45 26-45 65 0 36 10 65 43 65" id="ab"/><path fill="#333" d="M147 0L96-86 75-71V0H25v-261h50v150l67-79h53l-66 74L201 0h-54" id="ac"/><g id="k"><use transform="matrix(0.04938271604938272,0,0,0.04938271604938272,0,0)" xlink:href="#Y"/><use transform="matrix(0.04938271604938272,0,0,0.04938271604938272,16.39506172839506,0)" xlink:href="#Z"/><use transform="matrix(0.04938271604938272,0,0,0.04938271604938272,26.271604938271608,0)" xlink:href="#aa"/><use transform="matrix(0.04938271604938272,0,0,0.04938271604938272,37.08641975308642,0)" xlink:href="#V"/><use transform="matrix(0.04938271604938272,0,0,0.04938271604938272,49.876543209876544,0)" xlink:href="#ab"/><use transform="matrix(0.04938271604938272,0,0,0.04938271604938272,60.69135802469136,0)" xlink:href="#ab"/><use transform="matrix(0.04938271604938272,0,0,0.04938271604938272,71.50617283950618,0)" xlink:href="#ac"/></g><path fill="#333" d="M24 0v-248h195v40H76v63h132v40H76v65h150V0H24" id="ad"/><path fill="#333" d="M128 0H69L1-190h53L99-40l48-150h52" id="ae"/><path fill="#333" d="M135-194c87-1 58 113 63 194h-50c-7-57 23-157-34-157-59 0-34 97-39 157H25l-1-190h47c2 12-1 28 3 38 12-26 28-41 61-42" id="af"/><path fill="#333" d="M115-3C79 11 28 4 28-45v-112H4v-33h27l15-45h31v45h36v33H77v99c-1 23 16 31 38 25v30" id="ag"/><path fill="#333" d="M137-138c1-29-70-34-71-4 15 46 118 7 119 86 1 83-164 76-172 9l43-7c4 19 20 25 44 25 33 8 57-30 24-41C81-84 22-81 20-136c-2-80 154-74 161-7" id="ah"/><g id="l"><use transform="matrix(0.04938271604938272,0,0,0.04938271604938272,0,0)" xlink:href="#ad"/><use transform="matrix(0.04938271604938272,0,0,0.04938271604938272,11.851851851851853,0)" xlink:href="#ae"/><use transform="matrix(0.04938271604938272,0,0,0.04938271604938272,21.7283950617284,0)" xlink:href="#Z"/><use transform="matrix(0.04938271604938272,0,0,0.04938271604938272,31.60493827160494,0)" xlink:href="#af"/><use transform="matrix(0.04938271604938272,0,0,0.04938271604938272,42.41975308641976,0)" xlink:href="#ag"/><use transform="matrix(0.04938271604938272,0,0,0.04938271604938272,48.296296296296305,0)" xlink:href="#ah"/></g><path fill="#333" d="M169-182c-1-43-94-46-97-3 18 66 151 10 154 114 3 95-165 93-204 36-6-8-10-19-12-30l50-8c3 46 112 56 116 5-17-69-150-10-154-114-4-87 153-88 188-35 5 8 8 18 10 28" id="ai"/><path fill="#333" d="M190-63c-7 42-38 67-86 67-59 0-84-38-90-98-12-110 154-137 174-36l-49 2c-2-19-15-32-35-32-30 0-35 28-38 64-6 74 65 87 74 30" id="aj"/><g id="m"><use transform="matrix(0.04938271604938272,0,0,0.04938271604938272,0,0)" xlink:href="#Y"/><use transform="matrix(0.04938271604938272,0,0,0.04938271604938272,16.39506172839506,0)" xlink:href="#Z"/><use transform="matrix(0.04938271604938272,0,0,0.04938271604938272,26.271604938271608,0)" xlink:href="#aa"/><use transform="matrix(0.04938271604938272,0,0,0.04938271604938272,37.08641975308642,0)" xlink:href="#ai"/><use transform="matrix(0.04938271604938272,0,0,0.04938271604938272,48.93827160493827,0)" xlink:href="#ab"/><use transform="matrix(0.04938271604938272,0,0,0.04938271604938272,59.75308641975309,0)" xlink:href="#aj"/><use transform="matrix(0.04938271604938272,0,0,0.04938271604938272,69.62962962962963,0)" xlink:href="#ac"/><use transform="matrix(0.04938271604938272,0,0,0.04938271604938272,79.50617283950618,0)" xlink:href="#Z"/><use transform="matrix(0.04938271604938272,0,0,0.04938271604938272,89.38271604938272,0)" xlink:href="#ag"/></g><path fill="#3a414a" d="M205 0l-28-72H64L36 0H1l101-248h38L239 0h-34zm-38-99l-47-123c-12 45-31 82-46 123h93" id="ak"/><path fill="#3a414a" d="M115-194c55 1 70 41 70 98S169 2 115 4C84 4 66-9 55-30l1 105H24l-1-265h31l2 30c10-21 28-34 59-34zm-8 174c40 0 45-34 45-75s-6-73-45-74c-42 0-51 32-51 76 0 43 10 73 51 73" id="al"/><path fill="#3a414a" d="M100-194c62-1 85 37 85 99 1 63-27 99-86 99S16-35 15-95c0-66 28-99 85-99zM99-20c44 1 53-31 53-75 0-43-8-75-51-75s-53 32-53 75 10 74 51 75" id="am"/><g id="n"><use transform="matrix(0.06172839506172839,0,0,0.06172839506172839,0,0)" xlink:href="#ak"/><use transform="matrix(0.06172839506172839,0,0,0.06172839506172839,14.814814814814813,0)" xlink:href="#al"/><use transform="matrix(0.06172839506172839,0,0,0.06172839506172839,27.160493827160494,0)" xlink:href="#al"/><use transform="matrix(0.06172839506172839,0,0,0.06172839506172839,39.50617283950617,0)" xlink:href="#H"/><use transform="matrix(0.06172839506172839,0,0,0.06172839506172839,44.382716049382715,0)" xlink:href="#L"/><use transform="matrix(0.06172839506172839,0,0,0.06172839506172839,49.25925925925926,0)" xlink:href="#U"/><use transform="matrix(0.06172839506172839,0,0,0.06172839506172839,60.37037037037037,0)" xlink:href="#I"/><use transform="matrix(0.06172839506172839,0,0,0.06172839506172839,72.71604938271605,0)" xlink:href="#N"/><use transform="matrix(0.06172839506172839,0,0,0.06172839506172839,78.88888888888889,0)" xlink:href="#L"/><use transform="matrix(0.06172839506172839,0,0,0.06172839506172839,83.76543209876543,0)" xlink:href="#am"/><use transform="matrix(0.06172839506172839,0,0,0.06172839506172839,96.11111111111111,0)" xlink:href="#M"/></g></defs></g></svg>